<svg width="410" height="397" viewBox="0 0 410 397" fill="none" xmlns="http://www.w3.org/2000/svg">
<rect width="410" height="397" fill="#FBFBFB"/>
<rect x="29" y="55" width="80" height="20" fill="#C4C4C4"/>
<rect x="29" y="27" width="350" height="20" fill="#C4C4C4"/>
<rect x="29" y="83" width="80" height="20" fill="#C4C4C4"/>
<rect x="29" y="111" width="80" height="20" fill="#C4C4C4"/>
<rect x="29" y="139" width="80" height="20" fill="#C4C4C4"/>
<rect x="29" y="167" width="80" height="20" fill="#C4C4C4"/>
<rect x="119" y="55" width="80" height="20" fill="#C4C4C4"/>
<rect x="119" y="83" width="80" height="20" fill="#C4C4C4"/>
<rect x="119" y="111" width="80" height="20" fill="#C4C4C4"/>
<rect x="119" y="139" width="80" height="20" fill="#C4C4C4"/>
<rect x="119" y="167" width="80" height="20" fill="#C4C4C4"/>
<rect x="209" y="55" width="80" height="20" fill="#C4C4C4"/>
<rect x="209" y="83" width="80" height="20" fill="#C4C4C4"/>
<rect x="209" y="111" width="80" height="20" fill="#C4C4C4"/>
<rect x="209" y="139" width="80" height="20" fill="#C4C4C4"/>
<rect x="209" y="167" width="80" height="20" fill="#C4C4C4"/>
<rect x="299" y="55" width="80" height="20" fill="#C4C4C4"/>
<rect x="299" y="83" width="80" height="20" fill="#C4C4C4"/>
<rect x="299" y="111" width="80" height="20" fill="#C4C4C4"/>
<rect x="299" y="139" width="80" height="20" fill="#C4C4C4"/>
<rect x="299" y="167" width="80" height="20" fill="#C4C4C4"/>
<rect x="29" y="209" width="350" height="20" fill="#C4C4C4"/>
<rect x="29" y="237" width="80" height="20" fill="#C4C4C4"/>
<rect x="29" y="265" width="80" height="20" fill="#C4C4C4"/>
<rect x="29" y="293" width="80" height="20" fill="#C4C4C4"/>
<rect x="29" y="321" width="80" height="20" fill="#C4C4C4"/>
<rect x="29" y="349" width="80" height="20" fill="#C4C4C4"/>
<rect x="119" y="237" width="80" height="20" fill="#C4C4C4"/>
<rect x="119" y="265" width="80" height="20" fill="#C4C4C4"/>
<rect x="119" y="293" width="80" height="20" fill="#C4C4C4"/>
<rect x="119" y="321" width="80" height="20" fill="#C4C4C4"/>
<rect x="119" y="349" width="80" height="20" fill="#C4C4C4"/>
<rect x="209" y="237" width="80" height="20" fill="#C4C4C4"/>
<rect x="209" y="265" width="80" height="20" fill="#C4C4C4"/>
<rect x="209" y="293" width="80" height="20" fill="#C4C4C4"/>
<rect x="209" y="321" width="80" height="20" fill="#C4C4C4"/>
<rect x="209" y="349" width="80" height="20" fill="#C4C4C4"/>
<rect x="299" y="237" width="80" height="20" fill="#C4C4C4"/>
<rect x="299" y="265" width="80" height="20" fill="#C4C4C4"/>
<rect x="299" y="293" width="80" height="20" fill="#C4C4C4"/>
<rect x="299" y="321" width="80" height="20" fill="#C4C4C4"/>
<rect x="299" y="349" width="80" height="20" fill="#C4C4C4"/>
</svg>
