<svg width="711" height="275" viewBox="0 0 711 275" fill="none" xmlns="http://www.w3.org/2000/svg">
<rect width="711" height="275" fill="#FBFBFB"/>
<rect x="36" y="73" width="208" height="20" fill="#C4C4C4"/>
<rect x="264" y="37" width="417" height="20" fill="#C4C4C4"/>
<rect x="36" y="109" width="208" height="20" fill="#C4C4C4"/>
<rect x="36" y="139" width="208" height="20" fill="#C4C4C4"/>
<rect x="36" y="169" width="208" height="20" fill="#C4C4C4"/>
<rect x="36" y="199" width="208" height="20" fill="#C4C4C4"/>
<rect x="36" y="229" width="208" height="20" fill="#C4C4C4"/>
<rect x="264" y="73" width="281" height="20" fill="#C4C4C4"/>
<rect x="264" y="109" width="281" height="20" fill="#C4C4C4"/>
<rect x="264" y="139" width="281" height="20" fill="#C4C4C4"/>
<rect x="264" y="169" width="281" height="20" fill="#C4C4C4"/>
<rect x="264" y="199" width="281" height="20" fill="#C4C4C4"/>
<rect x="264" y="229" width="281" height="20" fill="#C4C4C4"/>
<rect x="565" y="73" width="116" height="20" fill="#C4C4C4"/>
<rect x="565" y="109" width="116" height="20" fill="#C4C4C4"/>
<rect x="565" y="139" width="116" height="20" fill="#C4C4C4"/>
<rect x="565" y="169" width="116" height="20" fill="#C4C4C4"/>
<rect x="565" y="199" width="116" height="20" fill="#C4C4C4"/>
<rect x="565" y="229" width="116" height="20" fill="#C4C4C4"/>
</svg>
