<svg width="768" height="298" viewBox="0 0 768 298" fill="none" xmlns="http://www.w3.org/2000/svg">
<rect width="768" height="298" fill="#FBFBFB"/>
<rect x="29" y="97" width="80" height="20" fill="#C4C4C4"/>
<rect x="29" y="69" width="350" height="20" fill="#C4C4C4"/>
<rect x="29" y="125" width="80" height="20" fill="#C4C4C4"/>
<rect x="29" y="153" width="80" height="20" fill="#C4C4C4"/>
<rect x="29" y="181" width="80" height="20" fill="#C4C4C4"/>
<rect x="29" y="209" width="80" height="20" fill="#C4C4C4"/>
<rect x="119" y="97" width="80" height="20" fill="#C4C4C4"/>
<rect x="119" y="125" width="80" height="20" fill="#C4C4C4"/>
<rect x="119" y="153" width="80" height="20" fill="#C4C4C4"/>
<rect x="119" y="181" width="80" height="20" fill="#C4C4C4"/>
<rect x="119" y="209" width="80" height="20" fill="#C4C4C4"/>
<rect x="209" y="97" width="80" height="20" fill="#C4C4C4"/>
<rect x="209" y="125" width="80" height="20" fill="#C4C4C4"/>
<rect x="209" y="153" width="80" height="20" fill="#C4C4C4"/>
<rect x="209" y="181" width="80" height="20" fill="#C4C4C4"/>
<rect x="209" y="209" width="80" height="20" fill="#C4C4C4"/>
<rect x="299" y="97" width="80" height="20" fill="#C4C4C4"/>
<rect x="299" y="125" width="80" height="20" fill="#C4C4C4"/>
<rect x="299" y="153" width="80" height="20" fill="#C4C4C4"/>
<rect x="299" y="181" width="80" height="20" fill="#C4C4C4"/>
<rect x="299" y="209" width="80" height="20" fill="#C4C4C4"/>
<rect x="389" y="69" width="350" height="20" fill="#C4C4C4"/>
<rect x="389" y="97" width="80" height="20" fill="#C4C4C4"/>
<rect x="389" y="125" width="80" height="20" fill="#C4C4C4"/>
<rect x="389" y="153" width="80" height="20" fill="#C4C4C4"/>
<rect x="389" y="181" width="80" height="20" fill="#C4C4C4"/>
<rect x="389" y="209" width="80" height="20" fill="#C4C4C4"/>
<rect x="479" y="97" width="80" height="20" fill="#C4C4C4"/>
<rect x="479" y="125" width="80" height="20" fill="#C4C4C4"/>
<rect x="479" y="153" width="80" height="20" fill="#C4C4C4"/>
<rect x="479" y="181" width="80" height="20" fill="#C4C4C4"/>
<rect x="479" y="209" width="80" height="20" fill="#C4C4C4"/>
<rect x="569" y="97" width="80" height="20" fill="#C4C4C4"/>
<rect x="569" y="125" width="80" height="20" fill="#C4C4C4"/>
<rect x="569" y="153" width="80" height="20" fill="#C4C4C4"/>
<rect x="569" y="181" width="80" height="20" fill="#C4C4C4"/>
<rect x="569" y="209" width="80" height="20" fill="#C4C4C4"/>
<rect x="659" y="97" width="80" height="20" fill="#C4C4C4"/>
<rect x="659" y="125" width="80" height="20" fill="#C4C4C4"/>
<rect x="659" y="153" width="80" height="20" fill="#C4C4C4"/>
<rect x="659" y="181" width="80" height="20" fill="#C4C4C4"/>
<rect x="659" y="209" width="80" height="20" fill="#C4C4C4"/>
</svg>
